<svg width="20" height="20" viewBox="0 0 20 20" fill="none" xmlns="http://www.w3.org/2000/svg">
<path d="M6.27501 18.7622C13.8272 18.7622 17.9566 12.5043 17.9566 7.08067C17.9566 6.90187 17.9566 6.72307 17.9481 6.55279C18.7484 5.97382 19.4466 5.25011 20 4.42422C19.2678 4.74777 18.4759 4.96914 17.6415 5.07131C18.493 4.56045 19.1401 3.76011 19.4466 2.798C18.6547 3.26628 17.7778 3.60685 16.8412 3.79417C16.092 2.99383 15.0277 2.5 13.8442 2.5C11.5794 2.5 9.74032 4.33908 9.74032 6.60387C9.74032 6.92742 9.77437 7.24244 9.851 7.54044C6.43678 7.37016 3.41422 5.73542 1.38782 3.24926C1.03874 3.85377 0.834398 4.56045 0.834398 5.30971C0.834398 6.73159 1.55811 7.9917 2.66496 8.72393C1.99234 8.7069 1.36228 8.51958 0.808855 8.21307C0.808855 8.2301 0.808855 8.24713 0.808855 8.26416C0.808855 10.2565 2.22222 11.9083 4.10387 12.2914C3.7633 12.3851 3.39719 12.4361 3.02256 12.4361C2.75862 12.4361 2.50319 12.4106 2.24777 12.3595C2.76714 13.9943 4.28267 15.1777 6.07918 15.2118C4.67433 16.3101 2.90336 16.9657 0.97914 16.9657C0.647084 16.9657 0.323542 16.9487 0 16.9061C1.79651 18.0811 3.95913 18.7622 6.27501 18.7622Z" fill="white"/>
</svg>
